<?xml version="1.0" encoding="utf-8"?>
<!-- Svg Vector Icons : http://www.onlinewebfonts.com/icon -->
<!DOCTYPE svg PUBLIC "-//W3C//DTD SVG 1.1//EN" "http://www.w3.org/Graphics/SVG/1.1/DTD/svg11.dtd">
<svg version="1.1" xmlns="http://www.w3.org/2000/svg" xmlns:xlink="http://www.w3.org/1999/xlink" x="0px" y="0px" viewBox="0 0 256 256" enable-background="new 0 0 256 256" xml:space="preserve">
<metadata> Svg Vector Icons : http://www.onlinewebfonts.com/icon </metadata>
<g><g><g><path fill="#000000" d="M116.7,10.3C88.9,13.2,64,24.9,44.4,44.5c-18.8,18.8-29.9,41.6-33.9,69c-0.8,5.5-0.8,23.6,0,29.1c3.9,27.4,15.1,50.3,33.9,69c18.7,18.7,41.7,30,69,33.9c5.4,0.8,23.6,0.8,29.1,0c22.6-3.2,42.9-11.8,59.6-25.4c23.8-19.2,38.8-46.1,43.3-77.5c0.8-5.5,0.8-23.6,0-29.1c-3.9-27.3-15.1-50.3-33.9-69c-18.3-18.3-40.6-29.5-66.9-33.5C138.8,10.1,122.6,9.6,116.7,10.3z M140.9,20.5c19.3,2.2,38.8,10.4,54.6,22.9c4.3,3.4,13.8,12.8,17.2,17.2c12.2,15.6,20,33.8,22.7,53.4c1,7.4,1,20.8,0,28.2c-2.7,19.7-10.5,37.9-22.7,53.4c-3.4,4.3-12.8,13.8-17.2,17.2c-15.6,12.2-33.7,20-53.4,22.7c-7.3,1-20.7,1-28.2,0c-19.7-2.7-37.7-10.4-53.4-22.7c-4.9-3.8-14.9-14-18.7-19.1c-11.8-15.7-19.1-33.7-21.5-53c-0.7-5.6-0.7-19.8,0-25.3c2.5-19.5,9.6-37,21.3-52.7c4.4-5.9,15.1-16.6,21-21c17.7-13.2,37.3-20.4,59.8-21.9C126.1,19.5,136.3,19.9,140.9,20.5z"/><path fill="#000000" d="M118.5,39.9C96.2,42.2,74.7,53.6,60.2,71c-37.3,44.5-22.8,111.7,29.5,136.9c44,21.2,96.9,2.6,118.1-41.6C225.4,130,216,86.1,185,60.2C166.5,44.7,142.6,37.4,118.5,39.9z M134.4,49.5c47.3,4.2,80.3,48.3,70.7,94.6c-4.9,23.3-20.1,43.2-41.7,54.2c-25.4,12.9-55.5,11-79.4-4.9c-32.7-21.8-44.2-65.2-26.7-100.2C70.7,66.5,96.9,50,127.1,49.1C128.2,49.1,131.5,49.3,134.4,49.5z"/><path fill="#000000" d="M124.8,74.7c-1.6,1.1-2.4,3.4-2.4,6.8c0,2.9,0,3-1.2,3.3c-8.1,1.8-14,6.1-17.1,12.7c-1.5,3.1-1.7,3.8-1.8,8.5c-0.2,4.4,0,5.5,0.8,8.1c2.4,7.3,5.3,9.6,24.3,19.2c15.1,7.6,16.8,9.1,16.8,15.6c0,3.8-1.2,6.6-3.6,8.9c-3.2,2.9-6.3,3.8-12.7,3.8c-6.1,0-9-0.9-12.1-3.7c-2.4-2.1-3.3-4-3.8-8c-0.3-2.1-0.7-3.3-1.4-4.1c-2-2.2-6-1.8-7.6,0.6c-0.6,0.9-0.7,1.9-0.5,5.1c0.2,3.2,0.5,4.4,1.9,7.2c2.9,5.9,8.5,10.3,15.5,12l2.5,0.6l0.2,3.6c0.1,2,0.5,4.1,0.8,4.7c1.5,2.8,5.1,3.3,7.6,1.1c1.5-1.3,1.5-1.5,1.7-5.3l0.2-3.9l3-0.7c9.2-2.2,15.9-8.5,17.6-16.5c0.9-4.3,0.4-10.7-1.1-14c-2.9-6.3-6.4-8.9-23.8-17.6c-12.9-6.5-15.2-8.2-16.2-11.9c-0.7-2.7-0.3-7.1,0.8-9.5c2.4-4.6,7.6-7.1,14.9-7.1c9.5,0,15.7,4.5,15.7,11.5c0,3.3,2.3,6.1,5.2,6.1c1.6,0,3.8-1.6,4.5-3.2c0.8-2,0-7.6-1.8-11.5c-2.7-5.8-9.1-10.6-16-12.1l-2.8-0.6l-0.2-3.9c-0.1-3.7-0.2-4-1.7-5.3C129.1,73.8,126.6,73.5,124.8,74.7z"/></g></g></g>
</svg>